# xmcd CD database file
#
# Track frame offsets:
#	150
#	57258
#	78955
#	109178
#	162140
#
# Disc length: 2585 seconds
#
# Revision: 0
# Processed by: cddbd v1.5.2PL0 Copyright (c) Steve Scherf et al.
# Submitted via: CDex 1.70beta2
#
DISCID=330a1705
DTITLE=Bobby Timmons - Bobby Timmons live at the Conneticut Jazz Party
DYEAR=1900
DGENRE=Jazz
TTITLE0=Here's that rainy day
TTITLE1=Prelude to a kiss
TTITLE2="Theme"
TTITLE3=Now is the time
TTITLE4=Moanin'
EXTD=
EXTT0=
EXTT1=
EXTT2=
EXTT3=
EXTT4=
PLAYORDER=
